<mxfile host="app.diagrams.net" modified="2021-01-13T13:54:51.988Z" agent="5.0 (X11)" etag="JPgVquQU2XZBovnP_jHp" version="14.1.9" type="github">
  <diagram id="JgfoGJ3XISbpdv2K3d6i" name="Page-1">
    <mxGraphModel dx="1301" dy="1414" grid="1" gridSize="10" guides="1" tooltips="1" connect="1" arrows="1" fold="1" page="1" pageScale="1" pageWidth="827" pageHeight="1169" math="0" shadow="0">
      <root>
        <mxCell id="0" />
        <mxCell id="1" parent="0" />
        <mxCell id="MlGYC5pajuyseAJj1t0j-2" value="" style="endArrow=open;html=1;rounded=1;startArrow=open;startFill=0;endFill=0;" edge="1" parent="1">
          <mxGeometry width="50" height="50" relative="1" as="geometry">
            <mxPoint x="40" y="140" as="sourcePoint" />
            <mxPoint x="120" y="140" as="targetPoint" />
          </mxGeometry>
        </mxCell>
        <mxCell id="MlGYC5pajuyseAJj1t0j-4" value="&lt;div&gt;Distance&lt;/div&gt;&lt;div&gt;detector-object: 80mm&lt;br&gt;&lt;/div&gt;" style="text;html=1;align=center;verticalAlign=middle;resizable=0;points=[];autosize=1;" vertex="1" parent="1">
          <mxGeometry x="20" y="140" width="130" height="30" as="geometry" />
        </mxCell>
        <mxCell id="MlGYC5pajuyseAJj1t0j-6" value="&lt;div&gt;X-ray detector:&lt;/div&gt;&lt;div&gt;1217 pixels&lt;/div&gt;&lt;div&gt;pixel spacing: 1.9 um&lt;br&gt;&lt;/div&gt;" style="text;html=1;strokeColor=none;fillColor=none;align=center;verticalAlign=middle;whiteSpace=wrap;rounded=0;" vertex="1" parent="1">
          <mxGeometry x="-10" width="120" height="20" as="geometry" />
        </mxCell>
        <mxCell id="MlGYC5pajuyseAJj1t0j-15" value="&lt;div&gt;Distance&lt;/div&gt;&lt;div&gt;source-object: 145m&lt;br&gt;&lt;/div&gt;" style="text;html=1;align=center;verticalAlign=middle;resizable=0;points=[];autosize=1;" vertex="1" parent="1">
          <mxGeometry x="245" y="140" width="120" height="30" as="geometry" />
        </mxCell>
        <mxCell id="MlGYC5pajuyseAJj1t0j-16" value="" style="endArrow=open;html=1;rounded=1;startArrow=open;startFill=0;endFill=0;" edge="1" parent="1">
          <mxGeometry width="50" height="50" relative="1" as="geometry">
            <mxPoint x="120" y="139.67" as="sourcePoint" />
            <mxPoint x="400" y="140" as="targetPoint" />
          </mxGeometry>
        </mxCell>
        <mxCell id="MlGYC5pajuyseAJj1t0j-17" value="" style="ellipse;whiteSpace=wrap;html=1;aspect=fixed;fillColor=none;" vertex="1" parent="1">
          <mxGeometry x="395" y="75" width="10" height="10" as="geometry" />
        </mxCell>
        <mxCell id="MlGYC5pajuyseAJj1t0j-18" value="" style="group" vertex="1" connectable="0" parent="1">
          <mxGeometry x="105" y="65" width="30" height="30" as="geometry" />
        </mxCell>
        <mxCell id="MlGYC5pajuyseAJj1t0j-8" value="" style="whiteSpace=wrap;html=1;aspect=fixed;" vertex="1" parent="MlGYC5pajuyseAJj1t0j-18">
          <mxGeometry x="10" width="20" height="20" as="geometry" />
        </mxCell>
        <mxCell id="MlGYC5pajuyseAJj1t0j-9" value="" style="endArrow=none;html=1;" edge="1" parent="MlGYC5pajuyseAJj1t0j-18">
          <mxGeometry width="50" height="50" relative="1" as="geometry">
            <mxPoint y="10" as="sourcePoint" />
            <mxPoint x="10" as="targetPoint" />
          </mxGeometry>
        </mxCell>
        <mxCell id="MlGYC5pajuyseAJj1t0j-10" value="" style="whiteSpace=wrap;html=1;aspect=fixed;fillColor=none;" vertex="1" parent="MlGYC5pajuyseAJj1t0j-18">
          <mxGeometry y="10" width="20" height="20" as="geometry" />
        </mxCell>
        <mxCell id="MlGYC5pajuyseAJj1t0j-11" value="" style="endArrow=none;html=1;" edge="1" parent="MlGYC5pajuyseAJj1t0j-18">
          <mxGeometry width="50" height="50" relative="1" as="geometry">
            <mxPoint x="20" y="30" as="sourcePoint" />
            <mxPoint x="30" y="20" as="targetPoint" />
          </mxGeometry>
        </mxCell>
        <mxCell id="MlGYC5pajuyseAJj1t0j-12" value="" style="endArrow=none;html=1;" edge="1" parent="MlGYC5pajuyseAJj1t0j-18">
          <mxGeometry width="50" height="50" relative="1" as="geometry">
            <mxPoint x="20" y="30" as="sourcePoint" />
            <mxPoint x="30" y="20" as="targetPoint" />
          </mxGeometry>
        </mxCell>
        <mxCell id="MlGYC5pajuyseAJj1t0j-13" value="" style="endArrow=none;html=1;exitX=1;exitY=0;exitDx=0;exitDy=0;entryX=1;entryY=0;entryDx=0;entryDy=0;" edge="1" parent="MlGYC5pajuyseAJj1t0j-18" source="MlGYC5pajuyseAJj1t0j-8" target="MlGYC5pajuyseAJj1t0j-10">
          <mxGeometry width="50" height="50" relative="1" as="geometry">
            <mxPoint x="30" y="40" as="sourcePoint" />
            <mxPoint x="40" y="30" as="targetPoint" />
          </mxGeometry>
        </mxCell>
        <mxCell id="MlGYC5pajuyseAJj1t0j-14" value="" style="endArrow=none;html=1;exitX=0.5;exitY=0.5;exitDx=0;exitDy=0;entryX=0;entryY=1;entryDx=0;entryDy=0;exitPerimeter=0;" edge="1" parent="MlGYC5pajuyseAJj1t0j-18" source="MlGYC5pajuyseAJj1t0j-10" target="MlGYC5pajuyseAJj1t0j-10">
          <mxGeometry width="50" height="50" relative="1" as="geometry">
            <mxPoint x="40" y="10" as="sourcePoint" />
            <mxPoint x="30" y="20" as="targetPoint" />
          </mxGeometry>
        </mxCell>
        <mxCell id="MlGYC5pajuyseAJj1t0j-19" value="" style="endArrow=classic;html=1;" edge="1" parent="1">
          <mxGeometry width="50" height="50" relative="1" as="geometry">
            <mxPoint x="395" y="79.83" as="sourcePoint" />
            <mxPoint x="325" y="79.83" as="targetPoint" />
          </mxGeometry>
        </mxCell>
        <mxCell id="MlGYC5pajuyseAJj1t0j-20" value="" style="rounded=0;whiteSpace=wrap;html=1;fillColor=none;" vertex="1" parent="1">
          <mxGeometry x="30" y="40" width="10" height="10" as="geometry" />
        </mxCell>
        <mxCell id="MlGYC5pajuyseAJj1t0j-21" value="" style="rounded=0;whiteSpace=wrap;html=1;fillColor=none;" vertex="1" parent="1">
          <mxGeometry x="30" y="50" width="10" height="10" as="geometry" />
        </mxCell>
        <mxCell id="MlGYC5pajuyseAJj1t0j-22" value="" style="rounded=0;whiteSpace=wrap;html=1;fillColor=none;direction=west;" vertex="1" parent="1">
          <mxGeometry x="30" y="60" width="10" height="10" as="geometry" />
        </mxCell>
        <mxCell id="MlGYC5pajuyseAJj1t0j-23" value="" style="rounded=0;whiteSpace=wrap;html=1;fillColor=none;" vertex="1" parent="1">
          <mxGeometry x="30" y="70" width="10" height="10" as="geometry" />
        </mxCell>
        <mxCell id="MlGYC5pajuyseAJj1t0j-24" value="" style="rounded=0;whiteSpace=wrap;html=1;fillColor=none;" vertex="1" parent="1">
          <mxGeometry x="30" y="80" width="10" height="10" as="geometry" />
        </mxCell>
        <mxCell id="MlGYC5pajuyseAJj1t0j-25" value="" style="rounded=0;whiteSpace=wrap;html=1;fillColor=none;direction=west;" vertex="1" parent="1">
          <mxGeometry x="30" y="90" width="10" height="10" as="geometry" />
        </mxCell>
        <mxCell id="MlGYC5pajuyseAJj1t0j-26" value="" style="rounded=0;whiteSpace=wrap;html=1;fillColor=none;" vertex="1" parent="1">
          <mxGeometry x="30" y="100" width="10" height="10" as="geometry" />
        </mxCell>
        <mxCell id="MlGYC5pajuyseAJj1t0j-27" value="" style="rounded=0;whiteSpace=wrap;html=1;fillColor=none;" vertex="1" parent="1">
          <mxGeometry x="30" y="110" width="10" height="10" as="geometry" />
        </mxCell>
        <mxCell id="MlGYC5pajuyseAJj1t0j-29" value="&lt;div&gt;X-ray source:&lt;/div&gt;&lt;div&gt;97%: 33 keV&lt;/div&gt;&lt;div&gt;2%: 66 keV&lt;/div&gt;&lt;div&gt;1%: 99 keV&lt;br&gt;&lt;/div&gt;" style="text;html=1;strokeColor=none;fillColor=none;align=center;verticalAlign=middle;whiteSpace=wrap;rounded=0;" vertex="1" parent="1">
          <mxGeometry x="405" y="75" width="75" height="20" as="geometry" />
        </mxCell>
      </root>
    </mxGraphModel>
  </diagram>
</mxfile>
